<svg xmlns="http://www.w3.org/2000/svg" width="3464" height="649" viewBox="0 0 3464 649" version="1.1"><path d="M 58.790 17.724 C 56.186 17.999, 54.323 19.015, 52.540 21.135 L 50 24.153 50.015 81.327 C 50.024 112.772, 50.361 138.995, 50.765 139.600 C 51.169 140.205, 52.483 141.218, 53.684 141.850 C 55.322 142.712, 180.795 143, 554.775 143 C 1083.602 143, 1061.364 143.183, 1064.145 138.800 C 1064.598 138.085, 1064.976 111.357, 1064.985 79.405 C 1065 21.605, 1064.989 21.300, 1062.895 19.405 C 1060.831 17.537, 1051.026 17.498, 561.645 17.416 C 287.115 17.369, 60.831 17.508, 58.790 17.724 M 1831.318 71.339 L 1831.966 117 1790.146 117 C 1767.146 117, 1732.808 117.296, 1713.841 117.659 L 1679.354 118.317 1679.427 186.658 L 1679.500 254.999 1682.750 254.999 C 1686.490 255, 1686.576 254.809, 1684.357 251.422 C 1682.895 249.191, 1682.661 242.455, 1682.233 190.208 C 1681.722 127.833, 1681.933 124.254, 1686.284 121.767 C 1687.991 120.791, 1704.683 120.385, 1759 120 C 1834.040 119.468, 1833.086 119.535, 1834.945 114.645 C 1836.114 111.571, 1835.128 37.632, 1833.839 31.747 C 1833.267 29.133, 1832.320 26.698, 1831.734 26.336 C 1830.984 25.872, 1830.861 39.149, 1831.318 71.339 M 2192.705 70.750 L 2193.312 116 2143.286 116 L 2093.260 116 2093.672 163.750 C 2093.898 190.012, 2094.543 231.300, 2095.106 255.500 C 2095.669 279.700, 2096.388 356.538, 2096.703 426.250 L 2097.277 553 2050.388 553.082 C 2007.776 553.156, 2003.814 553.300, 2006.948 554.665 C 2009.927 555.963, 2016.232 556.068, 2053.391 555.436 L 2096.387 554.704 2098.853 552.238 L 2101.319 549.772 2100.608 423.636 C 2100.217 354.261, 2099.472 289.850, 2098.953 280.500 C 2098.434 271.150, 2097.712 231.990, 2097.348 193.478 C 2096.754 130.633, 2096.847 123.296, 2098.255 121.888 C 2100.428 119.715, 2122.875 118.781, 2152.494 119.631 C 2178.382 120.375, 2189.950 119.671, 2193.043 117.165 C 2194.174 116.249, 2195.435 113.925, 2195.845 112 C 2196.256 110.075, 2196.205 91.214, 2195.732 70.087 C 2195.081 40.993, 2194.536 30.925, 2193.485 28.587 C 2192.288 25.922, 2192.181 31.687, 2192.705 70.750 M 2502.427 70.298 C 2502.467 94.792, 2502.161 115.172, 2501.747 115.586 C 2501.332 116.001, 2488.732 115.780, 2473.747 115.096 C 2458.761 114.412, 2424.441 113.596, 2397.479 113.282 L 2348.458 112.712 2349.208 120.106 C 2349.620 124.173, 2350.253 156.224, 2350.613 191.331 L 2351.269 255.163 2353.385 254.595 C 2354.548 254.283, 2356.073 254.021, 2356.773 254.014 C 2357.739 254.003, 2357.684 253.447, 2356.545 251.709 C 2355.278 249.776, 2354.883 239.311, 2354.009 184.553 C 2353.050 124.505, 2353.097 119.551, 2354.641 117.844 C 2356.212 116.108, 2358.685 116.003, 2396.905 116.058 C 2419.232 116.089, 2442.675 116.543, 2449 117.065 C 2455.325 117.588, 2469.290 118.299, 2480.033 118.647 L 2499.565 119.278 2502.533 116.727 L 2505.500 114.176 2505.826 84.838 C 2506.200 51.129, 2505.368 29.885, 2503.577 27.436 C 2502.605 26.108, 2502.368 34.944, 2502.427 70.298 M 2664.032 248.750 L 2664 472 2674.250 471.869 C 2683.637 471.749, 2684.008 471.675, 2678.649 470.990 C 2674.723 470.489, 2672.091 469.536, 2670.649 468.094 L 2668.500 465.945 2668.242 252.722 C 2668.100 135.450, 2667.736 37.188, 2667.434 34.362 C 2667.131 31.536, 2666.249 28.386, 2665.474 27.362 C 2664.259 25.758, 2664.059 56.405, 2664.032 248.750 M 2982.820 295.750 C 2982.996 444.112, 2982.849 568.728, 2982.492 572.673 C 2982.058 577.478, 2981.375 580.026, 2980.424 580.391 C 2978.669 581.064, 2943.592 579.308, 2932 577.966 C 2918.043 576.351, 2888.002 575.720, 2891 577.105 C 2892.416 577.759, 2902.602 578.622, 2914.500 579.096 C 2926.050 579.556, 2941.350 580.373, 2948.500 580.911 C 2955.650 581.449, 2965.632 582.204, 2970.682 582.590 L 2979.864 583.290 2982.808 580.346 L 2985.753 577.401 2986.517 453.451 C 2987.560 284.361, 2986.618 32.450, 2984.929 28.744 C 2984.241 27.235, 2983.414 26, 2983.089 26 C 2982.765 26, 2982.644 147.387, 2982.820 295.750 M 3385.099 38.810 C 3382.191 45.789, 3372.184 70.625, 3362.859 94 C 3353.534 117.375, 3341.642 146.708, 3336.431 159.186 C 3331.220 171.663, 3326.319 183.679, 3325.539 185.890 C 3323.794 190.835, 3307.376 230.848, 3301.490 244.500 C 3287.264 277.495, 3274 311.183, 3274 314.317 C 3274 316.245, 3275.625 321.575, 3277.612 326.161 C 3282.073 336.462, 3294.462 367.035, 3331.297 458.649 C 3364.291 540.710, 3373.086 561.783, 3384.450 586 C 3393.907 606.155, 3398.409 617.492, 3397.695 619.353 C 3397.285 620.422, 3395.877 620.423, 3389.847 619.361 C 3382.627 618.090, 3375.390 617.286, 3345.500 614.436 C 3337.250 613.649, 3327.575 612.339, 3324 611.524 C 3320.425 610.709, 3312.888 610.032, 3307.252 610.021 L 3297.004 610 3293.987 605.250 C 3292.328 602.638, 3289.669 597.800, 3288.078 594.500 C 3278.190 573.983, 3269.640 554.811, 3261.989 536 C 3257.180 524.175, 3248.037 502.024, 3241.671 486.775 C 3235.305 471.526, 3228.463 454.093, 3226.467 448.034 C 3224.470 441.974, 3222.473 436.792, 3222.028 436.517 C 3220.856 435.793, 3218.434 439.867, 3215.084 448.201 C 3213.471 452.215, 3207.338 466.300, 3201.457 479.500 C 3195.576 492.700, 3188.087 509.575, 3184.814 517 C 3181.541 524.425, 3176.605 535.225, 3173.845 541 C 3171.085 546.775, 3166.378 557.575, 3163.386 565 C 3156.049 583.208, 3153.271 588.097, 3149 590.328 C 3145.818 591.989, 3143.502 592.106, 3123.500 591.613 C 3107.231 591.213, 3100.198 590.652, 3096.500 589.461 C 3089.660 587.258, 3048.356 585.791, 3050.393 587.824 C 3052.618 590.045, 3058.895 590.950, 3072.500 591.010 C 3079.650 591.041, 3090 591.473, 3095.500 591.968 C 3101 592.463, 3115.400 593.173, 3127.500 593.546 L 3149.500 594.224 3152.976 591.838 C 3157.706 588.592, 3159.986 584.937, 3165.502 571.758 C 3168.094 565.566, 3174.049 552.400, 3178.735 542.500 C 3183.422 532.600, 3189.621 519.100, 3192.512 512.500 C 3195.403 505.900, 3200.906 493.975, 3204.741 486 C 3208.577 478.025, 3212.916 468.310, 3214.383 464.411 C 3217.146 457.073, 3220.324 452.620, 3222.339 453.264 C 3223.687 453.695, 3224.288 454.860, 3234.842 477.500 C 3244.385 497.972, 3255.920 524.086, 3259.358 533 C 3260.737 536.575, 3264.840 546.250, 3268.475 554.500 C 3272.111 562.750, 3276.433 572.650, 3278.080 576.500 C 3284.964 592.585, 3293.696 608.493, 3296.811 610.622 C 3300.169 612.917, 3305.873 613.953, 3329 616.469 C 3336.975 617.336, 3351.825 619.151, 3362 620.502 C 3372.175 621.853, 3384.134 623.251, 3388.574 623.608 C 3405.457 624.967, 3405.369 622.314, 3387.264 584 C 3384.535 578.225, 3377.031 560.225, 3370.589 544 C 3364.147 527.775, 3357.575 511.350, 3355.986 507.500 C 3354.397 503.650, 3347.429 486.100, 3340.501 468.500 C 3333.574 450.900, 3325.254 429.975, 3322.013 422 C 3318.772 414.025, 3314.540 403.450, 3312.608 398.500 C 3310.676 393.550, 3306.794 384.100, 3303.980 377.500 C 3301.167 370.900, 3297.363 361.636, 3295.528 356.914 C 3293.692 352.191, 3291.068 346.116, 3289.696 343.414 C 3285.882 335.901, 3282.049 325.578, 3280.842 319.565 C 3279.595 313.357, 3280.905 308.117, 3287.484 293 C 3289.519 288.325, 3294.468 276.400, 3298.483 266.500 C 3302.498 256.600, 3308.552 241.975, 3311.937 234 C 3315.322 226.025, 3319.688 215.450, 3321.639 210.500 C 3334.243 178.521, 3341.399 160.414, 3350.493 137.500 C 3356.169 123.200, 3364.713 101.600, 3369.481 89.500 C 3374.249 77.400, 3381.267 59.719, 3385.075 50.209 C 3391.535 34.080, 3393.155 27.832, 3391.192 26.619 C 3390.748 26.344, 3388.006 31.830, 3385.099 38.810 M 1501.799 68.500 L 1501.500 110.500 1485.630 146 C 1476.902 165.525, 1466.923 188.025, 1463.455 196 C 1459.987 203.975, 1455.154 215, 1452.714 220.500 C 1439.790 249.635, 1428.290 275.845, 1407.523 323.500 C 1389.276 365.370, 1364.380 421.312, 1355.009 441.500 C 1349.647 453.050, 1343.146 467.450, 1340.563 473.500 C 1337.979 479.550, 1334.492 487.650, 1332.815 491.500 C 1331.137 495.350, 1329.544 499.063, 1329.275 499.750 C 1328.581 501.523, 1332.098 501.320, 1334.794 499.432 C 1336.026 498.569, 1336.778 497.450, 1336.466 496.944 C 1335.371 495.173, 1343.439 475.708, 1359.448 441.500 C 1361.250 437.650, 1364.649 430.225, 1367.003 425 C 1369.357 419.775, 1374.594 408.419, 1378.641 399.764 C 1382.688 391.109, 1386 383.824, 1386 383.574 C 1386 383.324, 1387.970 378.931, 1390.378 373.810 C 1394.391 365.277, 1398.840 355.091, 1416.504 314 C 1419.932 306.025, 1423.885 297.025, 1425.289 294 C 1426.692 290.975, 1430.156 283.100, 1432.985 276.500 C 1435.814 269.900, 1439.857 260.675, 1441.970 256 C 1444.082 251.325, 1448.747 240.525, 1452.337 232 C 1455.927 223.475, 1460.749 212.450, 1463.054 207.500 C 1465.359 202.550, 1468.943 194.450, 1471.019 189.500 C 1474.741 180.627, 1487.454 152.222, 1492.962 140.471 C 1498.364 128.947, 1500.865 122.363, 1502.971 114.114 C 1504.975 106.266, 1505.073 103.780, 1504.795 68.158 C 1504.583 41.086, 1504.162 29.938, 1503.299 28.500 C 1502.348 26.917, 1502.035 35.260, 1501.799 68.500 M 3163.361 28 C 3163.650 28.825, 3167.759 38.950, 3172.493 50.500 C 3177.227 62.050, 3183.750 78.925, 3186.989 88 C 3198.844 121.225, 3201.053 127.222, 3207.497 143.702 C 3211.109 152.941, 3215.362 163.425, 3216.947 167 C 3218.533 170.575, 3220.580 175.637, 3221.498 178.250 C 3223.922 185.155, 3225.959 184.317, 3228.458 175.384 C 3228.969 173.557, 3228.705 173.334, 3226.521 173.751 C 3224.295 174.177, 3223.732 173.651, 3221.824 169.367 C 3220.632 166.690, 3218.001 159.775, 3215.978 154 C 3213.955 148.225, 3209.368 136.488, 3205.783 127.919 C 3202.199 119.349, 3198.692 110.574, 3197.990 108.419 C 3194.302 97.091, 3172.990 43.930, 3168.958 36 C 3166.203 30.581, 3162.325 25.038, 3163.361 28 M 2885.489 201.500 C 2885.489 295.550, 2885.606 333.877, 2885.750 286.671 C 2885.894 239.465, 2885.894 162.515, 2885.750 115.671 C 2885.606 68.827, 2885.489 107.450, 2885.489 201.500 M 1228.500 115.908 C 1224.550 116.524, 1224.530 116.548, 1226.899 117.881 C 1228.846 118.976, 1243.807 119.263, 1306.399 119.408 C 1348.804 119.505, 1384.261 119.942, 1385.192 120.377 C 1386.122 120.813, 1387.051 122.144, 1387.257 123.335 C 1387.535 124.939, 1387.840 124.517, 1388.436 121.703 C 1388.878 119.615, 1388.961 117.628, 1388.620 117.286 C 1386.804 115.470, 1239.440 114.201, 1228.500 115.908 M 1942.500 117 C 1905.778 117.448, 1901.969 117.643, 1906 118.871 C 1909.656 119.984, 1918.187 120.118, 1951.500 119.584 C 1998.267 118.834, 1997.115 118.675, 1998.100 126.024 L 1998.700 130.500 1998.863 125.500 C 1998.954 122.750, 1999.280 119.560, 1999.588 118.411 C 2000.125 116.411, 1999.798 116.327, 1991.824 116.411 C 1987.246 116.460, 1965.050 116.725, 1942.500 117 M 823.500 202.949 C 660.635 203.363, 605.848 203.793, 603.886 204.673 C 602.449 205.319, 600.986 206.593, 600.636 207.505 C 599.449 210.598, 599.955 344.171, 601.171 348.500 C 601.788 350.700, 602.625 357.900, 603.031 364.500 C 603.437 371.100, 604.539 379.650, 605.479 383.500 C 606.419 387.350, 607.536 393.425, 607.960 397 C 608.384 400.575, 609.910 407.100, 611.350 411.500 C 612.791 415.900, 613.977 420.648, 613.985 422.050 C 613.993 423.453, 614.372 425.028, 614.826 425.550 C 615.280 426.073, 616.253 428.525, 616.987 431 C 621.832 447.330, 636.016 477.207, 647.118 494.467 C 661.099 516.202, 681.316 539.769, 696 551.448 C 707.040 560.229, 719.087 569.093, 726 573.519 C 730.125 576.160, 734.677 579.118, 736.116 580.092 C 737.556 581.066, 745.167 585.050, 753.031 588.946 C 780.232 602.422, 805.149 610.349, 835.500 615.183 C 847.471 617.090, 883.091 618.049, 963 618.617 C 1046.708 619.212, 1062.135 618.721, 1066.095 615.335 C 1069.848 612.125, 1070.092 608.114, 1069.792 554.504 L 1069.500 502.508 1065.500 501.145 C 1060.439 499.421, 1062.777 499.438, 972.383 500.463 C 893.709 501.354, 882.140 501.037, 859 497.353 C 845.466 495.198, 823.824 488.963, 815.700 484.878 C 798.481 476.219, 784.013 465.288, 772.014 451.871 C 767.896 447.267, 764.269 443.275, 763.953 443 C 761.903 441.214, 753.612 428.142, 750.067 421.108 C 747.742 416.492, 745.463 411.992, 745.004 411.108 C 743.018 407.288, 741 402.091, 741 400.799 C 741 400.029, 740.630 398.972, 740.177 398.450 C 739.724 397.928, 738.541 394.800, 737.547 391.500 C 736.554 388.200, 735.320 384.401, 734.804 383.058 C 733.042 378.462, 731.770 371.498, 730.959 362 C 730.035 351.183, 728.427 335.209, 727.415 326.786 C 726.602 320.027, 728.108 315.441, 731.411 314.612 C 732.643 314.302, 740.367 314.433, 748.576 314.903 C 765.100 315.848, 976.367 315.513, 1025.925 314.463 C 1044.409 314.071, 1058.308 313.361, 1059.675 312.738 C 1061.239 312.026, 1062 310.829, 1062 309.083 C 1062 307.655, 1062.500 304.915, 1063.112 302.993 C 1063.834 300.723, 1064.357 283.568, 1064.606 254 L 1064.988 208.500 1062.744 205.825 C 1060.635 203.311, 1059.898 203.127, 1050.500 202.774 C 1045 202.567, 942.850 202.646, 823.500 202.949 M 302.885 205.036 C 294.220 206.048, 291.351 207.659, 285.970 214.534 C 283.511 217.675, 279.165 223.002, 276.311 226.372 C 273.457 229.742, 267.382 237.091, 262.811 242.702 C 258.240 248.313, 247.525 261.321, 239 271.609 C 230.475 281.896, 221.250 293.086, 218.500 296.475 C 215.750 299.864, 211.379 305.081, 208.788 308.068 C 206.196 311.056, 199.446 319.154, 193.788 326.064 C 180.658 342.100, 162.798 363.673, 157 370.501 C 154.525 373.416, 147.803 381.583, 142.062 388.650 C 136.322 395.718, 129.034 404.425, 125.868 408 C 122.701 411.575, 110.969 425.525, 99.797 439 C 88.624 452.475, 78.312 464.850, 76.882 466.500 C 60.766 485.091, 54.422 493.249, 52.315 498.092 C 50.714 501.771, 49.364 613.433, 50.874 617.268 C 51.474 618.790, 53.210 620.537, 54.732 621.150 C 56.768 621.969, 100.854 621.924, 221.500 620.978 C 311.700 620.272, 421.500 619.624, 465.500 619.538 C 537.233 619.399, 545.818 619.215, 548.573 617.757 C 550.263 616.863, 552.159 615.514, 552.786 614.758 C 553.606 613.770, 553.959 597.827, 554.042 557.966 L 554.159 502.547 551.830 500.656 C 549.559 498.812, 545.542 498.781, 392.500 499.435 C 306.150 499.804, 234.375 500.306, 233 500.551 C 231.625 500.796, 229.851 500.579, 229.057 500.070 C 226.453 498.398, 227.018 497.599, 251.477 468.408 C 256.965 461.859, 261.725 456.275, 262.055 456 C 262.386 455.725, 273.393 442.225, 286.515 426 C 299.637 409.775, 311.864 394.700, 313.686 392.500 C 315.508 390.300, 321.031 383.463, 325.960 377.307 C 330.889 371.151, 335.593 365.301, 336.413 364.307 C 337.234 363.313, 343.158 355.975, 349.579 348 C 355.999 340.025, 362.433 332.112, 363.876 330.415 C 369.447 323.867, 370.862 322.119, 376.016 315.417 C 378.942 311.613, 384.289 304.900, 387.898 300.500 C 396.683 289.790, 395.758 290.937, 405.617 278.500 C 410.412 272.450, 418.660 262.325, 423.945 256 C 429.230 249.675, 437.416 239.775, 442.135 234 C 446.854 228.225, 453.479 220.454, 456.857 216.730 C 463.094 209.857, 464.608 205.831, 461.418 204.607 C 459.110 203.721, 310.700 204.123, 302.885 205.036 M 1998.476 283.500 C 1998.476 326.400, 1998.599 343.804, 1998.750 322.176 C 1998.900 300.547, 1998.900 265.447, 1998.750 244.176 C 1998.599 222.904, 1998.476 240.600, 1998.476 283.500 M 3146.064 245.246 C 3145.992 246.083, 3161.421 283.684, 3166.274 294.500 C 3168.584 299.647, 3169.427 303.022, 3169.458 307.249 C 3169.481 310.411, 3169.561 312.998, 3169.635 312.999 C 3169.709 312.999, 3170.518 311.858, 3171.432 310.463 C 3173.046 308, 3172.905 307.451, 3166.540 291.414 C 3158.797 271.904, 3146.211 243.528, 3146.064 245.246 M 1805.335 299.250 L 1805.805 344 1742.632 344 L 1679.458 344 1679.413 411.500 L 1679.368 479 1682.434 478.930 C 1684.120 478.891, 1686.376 478.517, 1687.446 478.098 C 1689.307 477.369, 1689.297 477.311, 1687.208 476.765 C 1686.007 476.451, 1684.555 474.960, 1683.982 473.453 C 1683.311 471.687, 1682.862 449.424, 1682.720 410.892 C 1682.513 354.640, 1682.606 350.966, 1684.285 349.286 C 1685.947 347.623, 1690.171 347.466, 1745.785 347 C 1778.628 346.725, 1806.227 346.138, 1807.115 345.695 C 1810.499 344.007, 1810.713 340.873, 1810.214 300.143 L 1809.720 259.786 1807.293 257.143 L 1804.865 254.500 1805.335 299.250 M 2474.392 276.659 C 2474.777 287.472, 2474.777 307.047, 2474.392 320.159 L 2473.693 344 2412.351 344 L 2351.009 344 2350.755 448.250 L 2350.500 552.500 2318 552.500 C 2270.827 552.500, 2258.137 552.850, 2260.269 554.091 C 2262.493 555.385, 2270.787 555.562, 2314.795 555.250 L 2350.091 555 2352.683 552.408 L 2355.275 549.816 2354.801 450.244 C 2354.346 354.618, 2354.400 350.600, 2356.164 348.836 C 2357.902 347.098, 2361.024 347, 2414.865 347 C 2470.638 347, 2471.780 346.961, 2474.331 344.955 C 2475.761 343.829, 2477.394 341.242, 2477.960 339.205 C 2478.576 336.985, 2478.991 321.157, 2478.994 299.718 C 2478.999 270.724, 2478.725 263.278, 2477.551 260.468 C 2476.754 258.561, 2475.560 257, 2474.897 257 C 2473.975 257, 2473.856 261.605, 2474.392 276.659 M 2254.415 353 C 2254.415 363.175, 2254.564 367.337, 2254.745 362.250 C 2254.927 357.162, 2254.927 348.837, 2254.745 343.750 C 2254.564 338.662, 2254.415 342.825, 2254.415 353 M 1999.425 458 C 1999.425 469.825, 1999.569 474.663, 1999.746 468.750 C 1999.923 462.837, 1999.923 453.163, 1999.746 447.250 C 1999.569 441.337, 1999.425 446.175, 1999.425 458 M 2254.445 481.500 C 2254.444 498.550, 2254.581 505.666, 2254.748 497.312 C 2254.915 488.959, 2254.915 475.009, 2254.748 466.312 C 2254.582 457.616, 2254.445 464.450, 2254.445 481.500 M 1744 474 L 1735.500 474.627 1744 474.700 C 1748.675 474.739, 1758.350 474.449, 1765.500 474.055 L 1778.500 473.339 1765.500 473.356 C 1758.350 473.365, 1748.675 473.655, 1744 474 M 1835.548 514 C 1835.927 536.825, 1836.296 557.300, 1836.369 559.500 L 1836.500 563.500 1804.500 564.128 C 1784.903 564.513, 1770.950 565.210, 1768.500 565.927 C 1766.283 566.576, 1752.021 567.502, 1736.500 568.003 C 1707.244 568.949, 1664.954 571.349, 1647 573.082 C 1641.225 573.640, 1625.250 574.637, 1611.500 575.298 C 1588.569 576.400, 1586.774 576.616, 1589.812 577.897 C 1592.396 578.987, 1596.575 579.165, 1608.812 578.705 C 1617.441 578.382, 1626.975 577.655, 1630 577.091 C 1638.163 575.569, 1691.129 572.215, 1726.500 570.980 C 1743.550 570.385, 1759.750 569.495, 1762.500 569.002 C 1765.250 568.509, 1782.572 567.782, 1800.994 567.386 L 1834.487 566.667 1837.402 563.752 L 1840.316 560.837 1839.658 535.256 C 1839.296 521.187, 1839 502.373, 1839 493.449 C 1839 478.464, 1838.841 477.041, 1836.929 474.861 L 1834.859 472.500 1835.548 514 M 2810.500 525.277 L 2810.500 569.500 2805 569.219 C 2789.183 568.410, 2735.875 565.774, 2710 564.520 C 2693.775 563.734, 2677.350 562.833, 2673.500 562.519 C 2669.650 562.205, 2654.800 561.518, 2640.500 560.994 C 2626.200 560.469, 2604.660 559.559, 2592.632 558.971 C 2580.605 558.383, 2570.523 558.144, 2570.228 558.439 C 2569.932 558.734, 2571.898 559.952, 2574.595 561.145 C 2579.308 563.230, 2581.358 563.346, 2627.499 564.127 C 2653.900 564.574, 2677.926 565.386, 2680.890 565.932 C 2683.855 566.477, 2698.030 567.197, 2712.390 567.530 C 2726.751 567.863, 2742.775 568.758, 2748 569.519 C 2753.225 570.280, 2769.200 571.208, 2783.500 571.581 C 2808.717 572.240, 2809.575 572.199, 2812 570.219 L 2814.500 568.177 2814.500 526.617 C 2814.500 486.390, 2814.436 484.992, 2812.500 483.055 L 2810.500 481.054 2810.500 525.277 M 1506.032 535.316 C 1506.012 562.599, 1505.617 580.848, 1505.020 581.962 C 1504.171 583.548, 1502.202 583.878, 1490.270 584.430 C 1467.458 585.484, 1433.888 587.995, 1427.500 589.124 C 1410.827 592.071, 1412.342 592.769, 1430.530 590.520 C 1442.927 588.987, 1487.057 586, 1497.313 586 C 1502.435 586, 1503.513 585.640, 1506.077 583.077 L 1509 580.154 1509 537.268 C 1509 501.108, 1508.770 494.078, 1507.532 492.441 C 1506.234 490.725, 1506.060 495.692, 1506.032 535.316 M 1373.500 593.638 C 1369.100 594.318, 1357.983 595.280, 1348.796 595.776 C 1338.601 596.327, 1331.530 597.145, 1330.651 597.874 C 1329.702 598.662, 1322.955 599.235, 1310.856 599.556 C 1300.760 599.823, 1288.900 600.460, 1284.500 600.971 C 1280.100 601.482, 1270.293 602.334, 1262.707 602.864 C 1254.145 603.461, 1248.317 604.322, 1247.340 605.133 C 1246.366 605.941, 1242.002 606.590, 1235.883 606.836 C 1230.447 607.054, 1226 607.630, 1226 608.116 C 1226 609.480, 1237.458 609.151, 1248 607.484 C 1253.225 606.658, 1265.150 605.305, 1274.500 604.477 C 1283.850 603.649, 1292.175 602.762, 1293 602.506 C 1293.825 602.250, 1302.761 601.573, 1312.858 601 C 1322.955 600.428, 1333.216 599.512, 1335.661 598.964 C 1338.106 598.416, 1346.945 597.527, 1355.303 596.989 C 1363.662 596.451, 1375.675 595.328, 1382 594.494 C 1388.325 593.661, 1395.750 592.826, 1398.500 592.640 C 1401.250 592.454, 1398.550 592.324, 1392.500 592.352 C 1386.450 592.380, 1377.900 592.958, 1373.500 593.638" stroke="none" fill="#ed0404" fill-rule="evenodd"/><path d="M 1229.179 24.129 C 1223.145 25.882, 1222.998 27.040, 1223.015 72.718 C 1223.024 95.148, 1223.361 113.950, 1223.765 114.500 C 1224.243 115.151, 1250.882 115.517, 1300 115.550 C 1341.525 115.577, 1378.537 115.951, 1382.250 116.380 C 1390.277 117.307, 1390.334 117.480, 1386.099 128.174 C 1384.504 132.203, 1381.995 138.650, 1380.525 142.500 C 1377.834 149.545, 1376.827 151.956, 1367.782 173 C 1365.063 179.325, 1361.800 187.200, 1360.531 190.500 C 1359.262 193.800, 1356.114 201, 1353.534 206.500 C 1350.955 212, 1347.248 220.550, 1345.296 225.500 C 1343.344 230.450, 1341.396 234.950, 1340.968 235.500 C 1340.539 236.050, 1338.397 240.775, 1336.207 246 C 1327.629 266.468, 1309.726 307.936, 1305.985 316 C 1303.817 320.675, 1300.055 329.225, 1297.626 335 C 1293.096 345.770, 1282.913 368.117, 1265.274 406 C 1259.768 417.825, 1252.893 432.675, 1249.998 439 C 1247.102 445.325, 1242.817 454.550, 1240.475 459.500 C 1232.718 475.899, 1222.971 500.006, 1221.350 506.802 C 1219.038 516.494, 1218.121 602.504, 1220.298 605.428 C 1221.569 607.135, 1222.864 607.329, 1231.617 607.127 C 1242.003 606.886, 1245.712 606.344, 1247.707 604.775 C 1248.371 604.254, 1255.121 603.393, 1262.707 602.864 C 1270.293 602.334, 1280.100 601.482, 1284.500 600.971 C 1288.900 600.460, 1300.760 599.823, 1310.856 599.556 C 1322.955 599.235, 1329.702 598.662, 1330.651 597.874 C 1331.531 597.144, 1338.589 596.331, 1348.796 595.784 C 1357.983 595.292, 1369.325 594.299, 1374 593.577 C 1378.675 592.856, 1389.432 592.180, 1397.904 592.074 C 1406.376 591.969, 1415.376 591.453, 1417.904 590.929 C 1420.432 590.404, 1424.975 589.545, 1428 589.019 C 1434.005 587.976, 1468.398 585.441, 1490.270 584.430 C 1502.257 583.875, 1504.169 583.553, 1505.030 581.943 C 1505.653 580.779, 1505.924 563.295, 1505.760 534.797 L 1505.500 489.500 1489 489.684 C 1471.330 489.880, 1450.507 491.184, 1403.142 495.060 C 1382.343 496.762, 1341.150 498.852, 1339.079 498.310 C 1338.004 498.029, 1336.096 498.519, 1334.840 499.400 C 1332.106 501.314, 1328.576 501.537, 1329.275 499.750 C 1329.544 499.063, 1331.137 495.350, 1332.815 491.500 C 1334.492 487.650, 1337.979 479.550, 1340.563 473.500 C 1343.146 467.450, 1349.647 453.050, 1355.009 441.500 C 1364.380 421.312, 1389.276 365.370, 1407.523 323.500 C 1428.290 275.845, 1439.790 249.635, 1452.714 220.500 C 1455.154 215, 1459.987 203.975, 1463.455 196 C 1466.923 188.025, 1476.902 165.525, 1485.630 146 L 1501.500 110.500 1501.500 68.030 L 1501.500 25.560 1499.031 24.328 C 1495.915 22.775, 1234.508 22.582, 1229.179 24.129 M 1595.500 23.666 C 1590.760 24.724, 1587.771 26.471, 1586.933 28.676 C 1585.660 32.024, 1584.553 573.092, 1585.816 574.891 C 1586.640 576.065, 1590.660 576.113, 1611.646 575.194 C 1625.316 574.596, 1641.225 573.648, 1647 573.088 C 1664.841 571.356, 1707.152 568.952, 1736.500 568.003 C 1752.021 567.502, 1766.283 566.576, 1768.500 565.927 C 1770.950 565.210, 1784.903 564.513, 1804.500 564.128 L 1836.500 563.500 1836.114 553.500 C 1835.902 548, 1835.452 527.300, 1835.114 507.500 L 1834.500 471.500 1828.500 471.166 C 1825.200 470.982, 1814.850 471.322, 1805.500 471.921 C 1796.150 472.519, 1778.375 473.466, 1766 474.024 C 1737.349 475.315, 1693.317 477.813, 1685.434 478.593 L 1679.368 479.194 1679.413 411.597 L 1679.458 344 1742.639 344 L 1805.819 344 1805.331 300.250 C 1805.062 276.188, 1804.652 255.899, 1804.420 255.165 C 1804.072 254.067, 1792.997 253.890, 1741.749 254.165 L 1679.500 254.500 1679.427 186.409 L 1679.354 118.317 1713.841 117.659 C 1732.808 117.296, 1767.146 117, 1790.146 117 L 1831.966 117 1831.355 71.250 C 1831.014 45.665, 1830.338 25.059, 1829.823 24.500 C 1828.911 23.512, 1599.843 22.697, 1595.500 23.666 M 1908.757 24.201 C 1906.698 24.748, 1903.944 26.466, 1902.637 28.020 L 1900.261 30.844 1899.799 70.672 C 1899.540 93.004, 1899.735 111.972, 1900.243 113.851 L 1901.150 117.201 1950.325 116.851 L 1999.500 116.500 1999.524 290 C 1999.546 450.648, 2000.582 536.745, 2002.644 549.250 L 2003.262 553 2050.269 553 L 2097.277 553 2096.703 426.250 C 2096.388 356.538, 2095.669 279.700, 2095.106 255.500 C 2094.543 231.300, 2093.898 190.012, 2093.672 163.750 L 2093.260 116 2143.130 116 L 2193 116 2192.998 98.250 C 2192.997 88.487, 2192.700 68.031, 2192.338 52.792 L 2191.680 25.084 2188.691 24.042 C 2184.665 22.639, 1914.060 22.792, 1908.757 24.201 M 2263.333 24.089 C 2257.658 25.747, 2255.275 29.832, 2254.509 39.217 C 2254.138 43.773, 2253.996 160.038, 2254.194 297.585 C 2254.522 525.714, 2254.695 547.886, 2256.168 550.134 L 2257.783 552.598 2304.141 552.549 L 2350.500 552.500 2350.755 448.250 L 2351.009 344 2412.349 344 L 2473.689 344 2474.387 320.420 C 2474.771 307.452, 2474.770 287.614, 2474.386 276.336 L 2473.688 255.832 2471.121 254.856 C 2469.497 254.238, 2447.008 254.081, 2409.911 254.427 L 2351.268 254.975 2350.613 191.237 C 2350.252 156.182, 2349.620 124.173, 2349.208 120.106 L 2348.458 112.712 2397.479 113.282 C 2424.441 113.596, 2458.761 114.412, 2473.747 115.096 C 2488.732 115.780, 2501.332 116.001, 2501.747 115.586 C 2502.161 115.172, 2502.467 94.835, 2502.427 70.393 C 2502.371 36.708, 2502.057 25.657, 2501.127 24.727 C 2499.607 23.207, 2268.475 22.587, 2263.333 24.089 M 2577.014 24.024 C 2575.097 24.475, 2572.358 26.154, 2570.927 27.756 L 2568.325 30.667 2567.717 292.500 C 2567.352 449.441, 2567.473 555.015, 2568.019 556.036 C 2569.012 557.891, 2569.258 557.911, 2615.500 559.989 C 2652.274 561.641, 2681.465 563.024, 2711.500 564.536 C 2726.900 565.311, 2753 566.619, 2769.500 567.442 C 2786 568.265, 2801.975 569.064, 2805 569.219 L 2810.500 569.500 2810.500 525.333 C 2810.500 501.041, 2810.190 480.856, 2809.812 480.478 C 2809.434 480.100, 2801.784 479.387, 2792.812 478.894 C 2783.840 478.400, 2766.375 477.311, 2754 476.473 C 2718.441 474.065, 2700.825 473.059, 2681.750 472.348 L 2664 471.685 2664 248.390 L 2664 25.094 2660.250 24.053 C 2655.784 22.812, 2582.275 22.787, 2577.014 24.024 M 2890 24.743 L 2886.500 26.500 2885.718 298.877 C 2885.037 536.045, 2885.124 571.540, 2886.386 573.467 C 2887.764 575.569, 2888.725 575.712, 2905.668 576.327 C 2915.476 576.683, 2927.325 577.419, 2932 577.962 C 2943.555 579.305, 2978.664 581.066, 2980.424 580.391 C 2981.375 580.026, 2982.058 577.478, 2982.492 572.673 C 2982.849 568.728, 2982.996 444.135, 2982.820 295.800 C 2982.572 86.557, 2982.229 25.829, 2981.291 24.890 C 2980.393 23.993, 2968.915 23.592, 2936.791 23.334 C 2897.076 23.016, 2893.211 23.132, 2890 24.743 M 3074 23.989 C 3067.675 24.308, 3061.709 24.940, 3060.741 25.395 C 3056.150 27.551, 3058.096 36.116, 3068.263 58.500 C 3071.011 64.550, 3073.822 71.092, 3074.510 73.037 C 3075.198 74.982, 3082.172 91.632, 3090.008 110.037 C 3097.844 128.442, 3106.364 148.675, 3108.942 155 C 3121.210 185.098, 3123.488 190.535, 3124.025 191 C 3124.343 191.275, 3125.431 193.750, 3126.443 196.500 C 3128.574 202.292, 3142.718 235.776, 3150.731 254 C 3153.754 260.875, 3160.019 275.725, 3164.654 287 C 3172.727 306.638, 3173.016 307.605, 3171.522 310 C 3169.395 313.408, 3162.989 326.598, 3158.165 337.500 C 3155.975 342.450, 3151.493 352.125, 3148.205 359 C 3144.917 365.875, 3141.077 374.425, 3139.671 378 C 3138.266 381.575, 3134.416 390.177, 3131.116 397.116 C 3124.696 410.613, 3118.864 423.554, 3110.889 442 C 3108.154 448.325, 3103.948 457.775, 3101.542 463 C 3099.136 468.225, 3095.511 476.325, 3093.486 481 C 3091.462 485.675, 3086.924 495.665, 3083.403 503.201 C 3079.881 510.736, 3077 517.125, 3077 517.397 C 3077 518.030, 3068.272 537.219, 3056.904 561.579 C 3052.007 572.072, 3048 581.851, 3048 583.310 C 3048 586.746, 3048.211 586.781, 3072 587.366 C 3086.108 587.712, 3092.883 588.291, 3096.500 589.458 C 3100.203 590.653, 3107.207 591.212, 3123.500 591.613 C 3143.502 592.106, 3145.818 591.989, 3149 590.328 C 3153.271 588.097, 3156.049 583.208, 3163.386 565 C 3166.378 557.575, 3171.085 546.775, 3173.845 541 C 3176.605 535.225, 3181.541 524.425, 3184.814 517 C 3188.087 509.575, 3195.576 492.700, 3201.457 479.500 C 3207.338 466.300, 3213.471 452.215, 3215.084 448.201 C 3218.434 439.867, 3220.856 435.793, 3222.028 436.517 C 3222.473 436.792, 3224.470 441.974, 3226.467 448.034 C 3228.463 454.093, 3235.305 471.526, 3241.671 486.775 C 3248.037 502.024, 3257.180 524.175, 3261.989 536 C 3269.640 554.811, 3278.190 573.983, 3288.078 594.500 C 3289.669 597.800, 3292.328 602.638, 3293.987 605.250 L 3297.004 610 3307.252 610.021 C 3312.888 610.032, 3320.425 610.709, 3324 611.524 C 3327.575 612.339, 3337.250 613.649, 3345.500 614.436 C 3375.390 617.286, 3382.627 618.090, 3389.847 619.361 C 3395.877 620.423, 3397.285 620.422, 3397.695 619.353 C 3398.409 617.492, 3393.907 606.155, 3384.450 586 C 3373.086 561.783, 3364.291 540.710, 3331.297 458.649 C 3294.462 367.035, 3282.073 336.462, 3277.612 326.161 C 3275.625 321.575, 3274 316.245, 3274 314.317 C 3274 311.183, 3287.264 277.495, 3301.490 244.500 C 3307.376 230.848, 3323.794 190.835, 3325.539 185.890 C 3326.319 183.679, 3331.220 171.663, 3336.431 159.186 C 3341.642 146.708, 3353.534 117.375, 3362.859 94 C 3372.184 70.625, 3382.200 45.768, 3385.118 38.762 C 3389.387 28.512, 3390.177 25.777, 3389.163 24.762 C 3388.197 23.795, 3377.797 23.426, 3344.701 23.183 C 3320.940 23.008, 3299.036 23.166, 3296.024 23.533 C 3286.713 24.668, 3286.101 25.648, 3272.029 62 C 3264.905 80.404, 3264.105 82.449, 3252.470 112 C 3235.163 155.958, 3232.123 163.877, 3230.018 170.500 C 3225.367 185.130, 3224.265 186.132, 3221.498 178.250 C 3220.580 175.638, 3218.533 170.575, 3216.947 167 C 3215.362 163.425, 3211.109 152.941, 3207.497 143.702 C 3200.962 126.991, 3197.764 118.303, 3187.470 89.304 C 3181.688 73.014, 3166.988 35.950, 3163.834 29.710 C 3162.780 27.625, 3160.924 25.552, 3159.709 25.104 C 3156.945 24.084, 3089.537 23.207, 3074 23.989" stroke="none" fill="#fafafa" fill-rule="evenodd"/></svg>